<?xml version="1.0" standalone="no"?>
<!DOCTYPE svg PUBLIC "-//W3C//DTD SVG 20010904//EN"
 "http://www.w3.org/TR/2001/REC-SVG-20010904/DTD/svg10.dtd">
<svg version="1.0" xmlns="http://www.w3.org/2000/svg"
 width="1280.000000pt" height="1280.000000pt" viewBox="0 0 1280.000000 1280.000000"
 preserveAspectRatio="xMidYMid meet">
<metadata>
Created by potrace 1.16, written by Peter Selinger 2001-2019
</metadata>
<g transform="translate(0.000000,1280.000000) scale(0.100000,-0.100000)"
fill="#000000" stroke="none">
<path d="M3629 9716 c-47 -29 -161 -97 -253 -151 -145 -84 -173 -96 -202 -92
-33 6 -33 5 -40 -40 -11 -72 2 -222 23 -285 11 -31 16 -55 11 -52 -4 3 -8 0
-8 -5 0 -6 6 -11 14 -11 8 0 18 -5 22 -12 4 -7 3 -8 -4 -4 -8 5 -10 2 -6 -8 3
-9 10 -14 14 -11 5 3 11 1 15 -5 3 -5 0 -10 -7 -10 -15 -1 74 -86 106 -101 12
-6 8 0 -9 13 -16 13 -43 36 -60 51 -16 16 -3 8 30 -16 85 -64 124 -76 172 -54
l38 18 -25 -20 c-14 -12 -21 -21 -16 -21 4 0 21 11 38 25 27 23 28 30 5 26 -4
-1 -3 8 3 19 11 21 17 16 -97 84 -88 53 -113 85 -113 149 0 62 28 127 92 212
67 89 199 226 284 295 41 33 71 60 67 60 -5 0 -47 -24 -94 -54z"/>
<path d="M3219 8726 c-31 -10 -34 -14 -31 -46 1 -23 22 -63 61 -120 33 -47 68
-114 80 -148 25 -78 94 -390 122 -554 35 -204 12 -399 -66 -546 -37 -72 -199
-267 -281 -341 -152 -136 -171 -161 -198 -267 -12 -49 -42 -222 -63 -371 -3
-18 -9 -31 -13 -28 -4 2 -5 -6 -3 -18 3 -12 -6 -103 -18 -202 -20 -157 -23
-232 -25 -580 -2 -430 -1 -413 -80 -1175 -111 -1082 -192 -1683 -235 -1748 -9
-15 -10 -15 -5 1 3 11 8 31 11 45 4 19 1 17 -9 -9 -7 -19 -23 -54 -35 -77 -12
-23 -17 -42 -12 -42 5 0 0 -24 -11 -52 -14 -38 -19 -69 -16 -106 3 -30 1 -47
-3 -40 -14 21 -10 92 6 138 8 24 13 45 11 47 -8 8 -36 -92 -36 -129 0 -46 18
-84 57 -119 43 -38 68 -56 59 -41 -10 17 12 15 85 -5 55 -15 71 -15 162 -3 56
8 183 15 282 15 179 2 180 2 246 33 37 17 82 43 100 58 l34 26 -33 -31 c-18
-17 -29 -31 -24 -31 10 0 82 73 82 84 0 5 -8 2 -17 -5 -16 -11 -16 -11 -5 1 7
8 18 15 24 15 6 0 13 6 16 14 3 8 0 11 -5 8 -6 -4 -4 16 3 44 11 40 11 80 3
187 -11 134 -6 262 11 332 7 30 8 31 10 10 l2 -25 8 25 c4 14 8 36 8 50 l0 25
-8 -25 c-6 -20 -8 -21 -8 -5 0 11 4 31 8 45 7 21 8 22 10 5 2 -17 3 -16 10 5
11 34 11 60 0 35 -13 -31 -12 -1 4 95 8 47 20 137 26 200 18 186 21 208 31
185 4 -11 8 -29 8 -40 l0 -20 -9 20 c-6 15 -9 5 -9 -35 -1 -54 13 -61 21 -10
2 14 10 -22 18 -80 18 -126 19 -591 2 -775 l-11 -120 3 125 c2 80 0 111 -5 85
-10 -53 -10 -195 1 -220 6 -14 9 -15 10 -5 1 10 4 9 9 -5 5 -11 4 -23 0 -26
-14 -8 48 -62 73 -65 13 -1 50 -7 83 -14 105 -21 526 5 637 40 74 23 82 24 72
8 -5 -7 7 -1 26 13 19 14 36 32 39 40 3 12 1 11 -15 -1 -18 -14 -18 -14 -5 2
7 10 17 15 22 13 9 -6 39 46 39 67 -1 7 -7 -2 -15 -19 -20 -47 -26 -41 -7 8
13 35 14 51 3 127 -22 154 -22 159 -12 137 8 -16 10 -17 10 -3 1 27 -11 51
-19 38 -4 -6 -19 62 -34 152 -26 165 -32 228 -16 178 l8 -25 0 25 c0 14 -3 34
-8 45 l-9 20 -1 -20 c-3 -28 -77 449 -89 574 -23 225 -33 592 -27 961 18 1014
56 1588 137 2049 80 452 63 857 -49 1154 -23 59 -50 149 -62 200 -31 136 -152
490 -177 519 -8 9 -16 24 -17 34 -2 14 -15 18 -66 21 -106 8 -106 -17 -1 -237
112 -233 191 -485 191 -610 0 -82 -15 -91 -133 -77 -64 8 -125 7 -231 -3 -293
-27 -335 -5 -375 191 -21 100 -135 497 -170 590 -12 30 -36 70 -55 88 -33 32
-38 33 -90 29 -67 -6 -65 4 2 12 32 4 41 7 26 11 -11 4 -36 1 -55 -5z"/>
<path d="M9985 7395 c0 -544 1 -766 2 -492 2 274 2 720 0 990 -1 271 -2 47 -2
-498z"/>
<path d="M7080 7413 l0 -713 1295 0 1295 0 0 713 0 712 -1295 0 -1295 0 0
-712z m1498 420 l3 -133 -641 0 -640 0 0 128 c0 71 3 132 7 135 3 4 290 6 637
4 l631 -2 3 -132z m920 0 l3 -133 -381 0 -380 0 0 135 0 136 378 -3 377 -3 3
-132z m-918 -373 l0 -130 -640 0 -640 0 0 130 0 130 640 0 640 0 0 -130z m920
0 l0 -130 -380 0 -380 0 0 130 0 130 380 0 380 0 0 -130z m-920 -431 l0 -129
-640 0 -640 0 0 130 0 130 633 2 c347 2 635 2 640 0 4 -2 7 -61 7 -133z m920
0 l0 -129 -380 0 -380 0 0 130 0 130 373 2 c204 2 375 2 380 0 4 -2 7 -61 7
-133z"/>
<path d="M6880 7694 c-119 -15 -351 -67 -450 -101 -98 -33 -239 -104 -318
-159 -35 -24 -60 -39 -56 -33 3 6 41 34 83 61 42 28 68 48 58 44 -29 -10 -162
-104 -183 -129 l-19 -22 25 20 25 20 -24 -28 c-24 -27 -38 -36 -26 -17 3 6 2
10 -2 10 -14 0 -123 -114 -123 -128 0 -8 -5 -10 -12 -6 -7 5 -9 2 -5 -8 3 -10
-9 -29 -36 -54 l-42 -39 40 43 c21 23 36 42 33 42 -9 0 -88 -83 -88 -93 0 -5
6 -5 13 -1 8 5 8 2 -2 -9 -16 -20 -25 -22 -16 -4 4 6 -2 2 -13 -10 -11 -12
-22 -20 -25 -17 -3 3 -3 -4 0 -16 4 -16 8 -18 14 -8 7 10 9 10 9 -3 0 -29 34
-46 103 -52 121 -11 193 -62 267 -189 32 -56 40 -63 71 -66 31 -3 37 1 58 38
14 26 20 48 16 63 -5 16 -4 18 3 8 8 -11 14 -6 26 24 9 22 14 45 11 52 -2 8
-1 12 3 9 13 -8 63 103 57 127 -2 12 -2 16 1 9 7 -15 24 -6 24 14 0 9 -5 12
-12 8 -7 -4 -8 -3 -4 5 4 6 11 9 16 6 5 -3 18 12 30 34 24 48 26 62 5 35 -14
-17 -14 -15 0 14 8 17 18 32 21 32 3 0 2 -6 -2 -12 -5 -9 -2 -8 10 1 13 11 14
16 4 22 -10 7 -9 9 5 9 9 0 17 2 17 4 0 2 3 12 7 22 5 13 3 15 -8 9 -8 -5 -11
-5 -6 1 5 5 14 9 20 9 5 0 12 6 15 14 3 9 0 11 -8 6 -9 -5 -11 -4 -6 3 4 7 15
12 24 12 15 0 15 2 2 10 -8 5 -12 10 -7 11 4 1 11 2 15 3 5 0 23 18 42 39 18
21 49 47 69 57 20 11 31 19 25 20 -6 0 -29 -12 -50 -26 -21 -15 -32 -19 -24
-9 41 50 219 97 351 93 74 -2 83 0 100 21 21 26 25 87 8 125 -17 37 -52 43
-159 30z"/>
<path d="M6986 6401 c-3 -5 -6 -651 -6 -1437 l0 -1428 -33 31 c-17 17 -58 47
-89 67 -168 106 -350 114 -473 20 -26 -19 -44 -31 -40 -25 11 19 -11 12 -29
-8 -10 -11 -15 -24 -12 -29 3 -5 -7 -20 -22 -33 l-27 -24 24 28 c14 15 21 27
17 27 -9 0 -55 -52 -56 -63 0 -5 6 -5 13 -1 7 4 9 3 4 -2 -5 -5 -14 -9 -20 -9
-5 0 -12 -6 -15 -14 -3 -9 0 -11 8 -6 9 5 11 4 6 -4 -4 -6 -11 -9 -16 -6 -5 3
-11 1 -15 -5 -3 -5 -1 -10 5 -10 6 0 8 -5 5 -10 -4 -6 -10 -8 -15 -5 -5 3 -11
1 -15 -5 -3 -5 -1 -10 6 -10 7 0 9 -3 5 -7 -4 -5 -13 -8 -19 -8 -7 0 -12 -10
-11 -22 0 -12 -4 -21 -9 -20 -5 1 -12 -4 -15 -12 -3 -9 0 -11 8 -6 9 5 11 4 6
-4 -4 -6 -12 -9 -17 -5 -5 3 -27 -33 -49 -80 -44 -95 -46 -100 -27 -90 6 4 -1
-7 -17 -24 -52 -55 -152 -99 -342 -148 -195 -50 -224 -52 -313 -13 -27 11 -64
37 -82 57 l-34 37 35 -31 c37 -34 91 -64 112 -64 7 0 -10 11 -38 24 -28 13
-60 35 -71 50 -12 14 -25 26 -30 26 -5 0 -9 62 -9 144 1 80 -3 141 -8 136 -4
-4 -7 -65 -5 -134 2 -69 1 -118 -3 -108 -12 30 -8 224 6 292 8 36 15 54 16 40
l2 -25 8 25 c4 14 8 36 8 50 l0 25 -9 -25 c-10 -28 -11 -41 22 265 25 227 29
473 15 870 -9 251 3 700 14 535 l5 -75 8 124 c5 67 6 126 3 129 -3 3 -6 -19
-6 -48 0 -29 -3 -51 -6 -47 -3 3 -3 48 2 99 5 60 10 84 14 68 6 -24 7 -24 13
9 4 18 6 45 6 60 -1 22 -3 21 -10 -9 -6 -27 -7 -22 -3 20 8 84 44 230 57 227
6 -1 12 7 14 18 3 16 2 17 -6 5 -9 -13 -11 -13 -11 3 0 9 8 17 18 18 10 0 12
3 4 6 -6 2 -10 9 -6 14 3 5 -20 32 -51 61 -31 28 -65 69 -77 91 l-20 41 -14
-25 c-8 -15 -14 -19 -14 -9 -2 19 -19 -18 -19 -40 0 -9 4 -8 9 5 l9 20 0 -20
c0 -11 -4 -29 -9 -40 l-9 -20 -1 20 c-2 25 -40 -112 -39 -140 1 -11 9 12 19
50 28 111 22 53 -10 -90 -15 -71 -29 -119 -30 -105 l-2 25 -8 -25 c-4 -14 -8
-36 -8 -50 l0 -25 8 25 c5 15 6 -7 3 -55 -7 -93 -12 -109 -14 -39 l-2 49 -7
-55 c-5 -30 -8 -118 -7 -195 l1 -140 6 145 6 145 2 -120 c1 -66 -5 -214 -13
-330 -8 -115 -19 -437 -24 -715 -9 -473 -11 -516 -36 -670 -22 -135 -27 -202
-28 -370 -1 -113 -5 -189 -8 -170 l-6 35 -1 -35 c0 -50 22 -135 35 -133 6 1
13 -7 16 -17 3 -11 1 -18 -4 -14 -16 10 -9 -13 8 -27 14 -12 16 -12 8 0 -5 9
-4 12 3 7 6 -4 9 -13 6 -20 -6 -16 54 -68 83 -72 10 -2 44 -12 77 -24 145 -52
293 -30 636 97 162 59 247 102 289 147 19 20 41 36 48 36 7 0 13 5 13 11 0 5
-6 7 -12 3 -8 -4 -10 -3 -5 2 5 5 13 10 18 10 22 3 23 5 9 14 -13 8 -13 10 1
10 9 0 20 7 23 16 8 22 8 26 -4 19 -5 -3 -3 11 4 32 8 21 19 37 27 35 10 -2
10 0 0 12 -9 11 -9 16 0 22 8 5 9 3 4 -6 -6 -9 -4 -11 4 -5 7 4 11 18 8 31 -2
13 0 21 4 18 4 -2 13 4 18 15 16 29 13 38 -4 15 -12 -15 -14 -15 -9 -2 3 9 17
24 31 33 13 9 22 23 19 30 -5 14 82 103 123 125 70 37 129 30 177 -22 22 -25
23 -28 5 -13 l-25 20 23 -32 c12 -18 27 -36 34 -40 7 -4 5 2 -3 13 -9 12 -5
11 13 -5 28 -25 38 -43 12 -21 -24 20 -17 -5 7 -26 12 -10 18 -13 14 -6 -10
18 -1 15 15 -5 10 -11 10 -14 2 -9 -22 12 -14 -10 9 -30 22 -19 23 -19 8 1
-15 20 -14 20 8 1 23 -20 30 -32 11 -20 -7 4 -10 1 -7 -7 3 -8 9 -14 14 -14
18 0 33 -16 28 -28 -2 -7 6 -22 18 -33 l23 -19 -20 25 c-19 25 -19 25 0 7 11
-10 20 -25 20 -35 0 -9 5 -16 11 -15 7 1 20 -7 30 -19 11 -12 13 -18 5 -13 -9
5 -12 3 -9 -6 3 -8 10 -14 16 -14 5 0 14 -4 19 -9 5 -5 3 -6 -4 -2 -9 5 -13 0
-13 -16 0 -16 3 -19 9 -10 16 27 21 -52 21 -364 l0 -314 390 0 390 0 0 2000
c0 1993 0 2000 20 2000 20 0 20 -7 20 -2000 l0 -2000 645 0 645 0 0 2000 c0
1995 0 2000 20 2000 20 0 20 -4 18 -2000 l-3 -2000 341 0 342 0 6 643 c4 353
6 1259 4 2012 l-3 1370 -1417 3 c-829 1 -1419 -2 -1422 -7z"/>
<path d="M9845 4720 c0 -921 1 -1298 2 -837 2 460 2 1214 0 1675 -1 460 -2 83
-2 -838z"/>
<path d="M6962 4976 l-2 -1399 -22 20 c-13 11 -30 24 -38 28 -8 4 3 -8 25 -27
l40 -36 3 698 c1 384 1 1017 -1 1407 -1 389 -3 78 -5 -691z"/>
<path d="M5810 2048 l0 -208 2585 0 2585 0 0 205 0 205 -2585 2 -2585 3 0
-207z"/>
</g>
</svg>
